<svg id="Capa_1" enable-background="new 0 0 512 512" height="512" viewBox="0 0 512 512" width="512" xmlns="http://www.w3.org/2000/svg"><path d="m272.292 470.957v-172.836h-32.584v172.837h-189.092c-2.859 0-5.177 2.318-5.177 5.177v22.23c0 2.859 2.318 5.177 5.177 5.177h410.768c2.859 0 5.177-2.318 5.177-5.177v-22.23c0-2.859-2.318-5.177-5.177-5.177h-189.092z" fill="#d8eafb"/><path d="m79.551 67.178h355.639v251.219h-355.639z" fill="#6ea8c8"/><path d="m445.716 105.747h-379.432c-11.512 0-20.845-9.333-20.845-20.845v-64.057c0-11.512 9.333-20.845 20.845-20.845h379.432c11.512 0 20.845 9.333 20.845 20.845v64.057c0 11.512-9.333 20.845-20.845 20.845z" fill="#0e80ac"/><path d="m445.716 245.661h-379.432c-11.512 0-20.845-9.333-20.845-20.845v-64.057c0-11.512 9.333-20.845 20.845-20.845h379.432c11.512 0 20.845 9.333 20.845 20.845v64.057c0 11.512-9.333 20.845-20.845 20.845z" fill="#3590bb"/><path d="m445.716 385.575h-379.432c-11.512 0-20.845-9.333-20.845-20.845v-64.057c0-11.512 9.333-20.845 20.845-20.845h379.432c11.512 0 20.845 9.333 20.845 20.845v64.057c0 11.512-9.333 20.845-20.845 20.845z" fill="#0e80ac"/><path d="m445.716 0h-34.572c8.908 0 16.13 7.222 16.13 16.13v73.487c0 8.908-7.222 16.13-16.13 16.13h34.572c11.512 0 20.845-9.333 20.845-20.845v-64.057c0-11.512-9.333-20.845-20.845-20.845z" fill="#057195"/><path d="m445.716 139.914h-34.572c8.908 0 16.13 7.222 16.13 16.13v73.487c0 8.908-7.222 16.13-16.13 16.13h34.572c11.512 0 20.845-9.333 20.845-20.845v-64.057c0-11.513-9.333-20.845-20.845-20.845z" fill="#0e80ac"/><path d="m445.716 279.828h-34.572c8.908 0 16.13 7.222 16.13 16.13v73.487c0 8.908-7.222 16.13-16.13 16.13h34.572c11.512 0 20.845-9.333 20.845-20.845v-64.057c0-11.513-9.333-20.845-20.845-20.845z" fill="#057195"/><g fill="#d8eafb"><path d="m278.381 43.882h-198.83c-4.268 0-7.726-3.459-7.726-7.726s3.459-7.726 7.726-7.726h198.83c4.268 0 7.726 3.459 7.726 7.726s-3.458 7.726-7.726 7.726z"/><path d="m278.381 77.317h-198.83c-4.268 0-7.726-3.459-7.726-7.726s3.459-7.726 7.726-7.726h198.83c4.268 0 7.726 3.459 7.726 7.726.001 4.267-3.458 7.726-7.726 7.726z"/><path d="m278.381 184.254h-198.83c-4.268 0-7.726-3.459-7.726-7.726s3.459-7.726 7.726-7.726h198.83c4.268 0 7.726 3.459 7.726 7.726s-3.458 7.726-7.726 7.726z"/><path d="m278.381 217.689h-198.83c-4.268 0-7.726-3.459-7.726-7.726s3.459-7.726 7.726-7.726h198.83c4.268 0 7.726 3.459 7.726 7.726.001 4.267-3.458 7.726-7.726 7.726z"/><path d="m278.381 324.626h-198.83c-4.268 0-7.726-3.459-7.726-7.726s3.459-7.726 7.726-7.726h198.83c4.268 0 7.726 3.459 7.726 7.726.001 4.267-3.458 7.726-7.726 7.726z"/><path d="m278.381 358.061h-198.83c-4.268 0-7.726-3.459-7.726-7.726s3.459-7.726 7.726-7.726h198.83c4.268 0 7.726 3.459 7.726 7.726.001 4.267-3.458 7.726-7.726 7.726z"/></g><path d="m196.08 506.084v-37.67c0-3.267 2.649-5.916 5.916-5.916h29.253v-18.444c0-3.267 2.649-5.916 5.916-5.916h37.67c3.267 0 5.916 2.649 5.916 5.916v18.444h28.313c3.267 0 5.916 2.649 5.916 5.916v37.67c0 3.267-2.649 5.916-5.916 5.916h-107.068c-3.267 0-5.916-2.649-5.916-5.916z" fill="#b3d8fb"/><path d="m403.576 76.586c-13.075 0-23.712-10.637-23.712-23.712s10.637-23.713 23.712-23.713 23.712 10.637 23.712 23.713c0 13.074-10.637 23.712-23.712 23.712z" fill="#69d8e4"/><path d="m403.576 216.481c-13.075 0-23.712-10.637-23.712-23.713 0-13.075 10.637-23.712 23.712-23.712s23.712 10.637 23.712 23.712c0 13.076-10.637 23.713-23.712 23.713z" fill="#fbd307"/><path d="m403.576 356.413c-13.075 0-23.712-10.637-23.712-23.712s10.637-23.713 23.712-23.713 23.712 10.637 23.712 23.713c0 13.075-10.637 23.712-23.712 23.712z" fill="#fa6931"/></svg>